<svg height="2094" width="720" xmlns="http://www.w3.org/2000/svg">
<rect height="2094" fill="#555" width="720"></rect>
<text fill="#7f7" font-family="Courier New" font-size="12" xml:space="preserve">
<tspan x="10" y="26">9 megabytes installed</tspan>
<tspan x="10" y="42"></tspan>
<tspan x="10" y="58">node_modules</tspan>
<tspan x="10" y="74">└─┬ gulp-sprite-generator@0.2.3 </tspan>
<tspan x="10" y="90">  ├── async@0.2.10 </tspan>
<tspan x="10" y="106">  ├── colors@0.6.2 </tspan>
<tspan x="10" y="122">  ├─┬ gulp-util@2.2.20 </tspan>
<tspan x="10" y="138">  │ ├─┬ chalk@0.5.1 </tspan>
<tspan x="10" y="154">  │ │ ├── ansi-styles@1.1.0 </tspan>
<tspan x="10" y="170">  │ │ ├── escape-string-regexp@1.0.5 </tspan>
<tspan x="10" y="186">  │ │ ├─┬ has-ansi@0.1.0 </tspan>
<tspan x="10" y="202">  │ │ │ └── ansi-regex@0.2.1 </tspan>
<tspan x="10" y="218">  │ │ ├── strip-ansi@0.3.0 </tspan>
<tspan x="10" y="234">  │ │ └── supports-color@0.2.0 </tspan>
<tspan x="10" y="250">  │ ├─┬ dateformat@1.0.12 </tspan>
<tspan x="10" y="266">  │ │ ├── get-stdin@4.0.1 </tspan>
<tspan x="10" y="282">  │ │ └─┬ meow@3.7.0 </tspan>
<tspan x="10" y="298">  │ │   ├─┬ camelcase-keys@2.1.0 </tspan>
<tspan x="10" y="314">  │ │   │ └── camelcase@2.1.1 </tspan>
<tspan x="10" y="330">  │ │   ├── decamelize@1.2.0 </tspan>
<tspan x="10" y="346">  │ │   ├─┬ loud-rejection@1.6.0 </tspan>
<tspan x="10" y="362">  │ │   │ ├─┬ currently-unhandled@0.4.1 </tspan>
<tspan x="10" y="378">  │ │   │ │ └── array-find-index@1.0.2 </tspan>
<tspan x="10" y="394">  │ │   │ └── signal-exit@3.0.2 </tspan>
<tspan x="10" y="410">  │ │   ├── map-obj@1.0.1 </tspan>
<tspan x="10" y="426">  │ │   ├── minimist@1.2.0 </tspan>
<tspan x="10" y="442">  │ │   ├─┬ normalize-package-data@2.3.6 </tspan>
<tspan x="10" y="458">  │ │   │ ├── hosted-git-info@2.4.2 </tspan>
<tspan x="10" y="474">  │ │   │ ├─┬ is-builtin-module@1.0.0 </tspan>
<tspan x="10" y="490">  │ │   │ │ └── builtin-modules@1.1.1 </tspan>
<tspan x="10" y="506">  │ │   │ ├── semver@5.3.0 </tspan>
<tspan x="10" y="522">  │ │   │ └─┬ validate-npm-package-license@3.0.1 </tspan>
<tspan x="10" y="538">  │ │   │   ├─┬ spdx-correct@1.0.2 </tspan>
<tspan x="10" y="554">  │ │   │   │ └── spdx-license-ids@1.2.2 </tspan>
<tspan x="10" y="570">  │ │   │   └── spdx-expression-parse@1.0.4 </tspan>
<tspan x="10" y="586">  │ │   ├── object-assign@4.1.1 </tspan>
<tspan x="10" y="602">  │ │   ├─┬ read-pkg-up@1.0.1 </tspan>
<tspan x="10" y="618">  │ │   │ ├─┬ find-up@1.1.2 </tspan>
<tspan x="10" y="634">  │ │   │ │ ├── path-exists@2.1.0 </tspan>
<tspan x="10" y="650">  │ │   │ │ └─┬ pinkie-promise@2.0.1 </tspan>
<tspan x="10" y="666">  │ │   │ │   └── pinkie@2.0.4 </tspan>
<tspan x="10" y="682">  │ │   │ └─┬ read-pkg@1.1.0 </tspan>
<tspan x="10" y="698">  │ │   │   ├─┬ load-json-file@1.1.0 </tspan>
<tspan x="10" y="714">  │ │   │   │ ├── graceful-fs@4.1.11 </tspan>
<tspan x="10" y="730">  │ │   │   │ ├─┬ parse-json@2.2.0 </tspan>
<tspan x="10" y="746">  │ │   │   │ │ └─┬ error-ex@1.3.1 </tspan>
<tspan x="10" y="762">  │ │   │   │ │   └── is-arrayish@0.2.1 </tspan>
<tspan x="10" y="778">  │ │   │   │ ├── pify@2.3.0 </tspan>
<tspan x="10" y="794">  │ │   │   │ └─┬ strip-bom@2.0.0 </tspan>
<tspan x="10" y="810">  │ │   │   │   └── is-utf8@0.2.1 </tspan>
<tspan x="10" y="826">  │ │   │   └── path-type@1.1.0 </tspan>
<tspan x="10" y="842">  │ │   ├─┬ redent@1.0.0 </tspan>
<tspan x="10" y="858">  │ │   │ ├─┬ indent-string@2.1.0 </tspan>
<tspan x="10" y="874">  │ │   │ │ └─┬ repeating@2.0.1 </tspan>
<tspan x="10" y="890">  │ │   │ │   └─┬ is-finite@1.0.2 </tspan>
<tspan x="10" y="906">  │ │   │ │     └── number-is-nan@1.0.1 </tspan>
<tspan x="10" y="922">  │ │   │ └── strip-indent@1.0.1 </tspan>
<tspan x="10" y="938">  │ │   └── trim-newlines@1.0.0 </tspan>
<tspan x="10" y="954">  │ ├── lodash._reinterpolate@2.4.1 </tspan>
<tspan x="10" y="970">  │ ├─┬ lodash.template@2.4.1 </tspan>
<tspan x="10" y="986">  │ │ ├── lodash._escapestringchar@2.4.1 </tspan>
<tspan x="10" y="1002">  │ │ ├─┬ lodash.defaults@2.4.1 </tspan>
<tspan x="10" y="1018">  │ │ │ └── lodash._objecttypes@2.4.1 </tspan>
<tspan x="10" y="1034">  │ │ ├─┬ lodash.escape@2.4.1 </tspan>
<tspan x="10" y="1050">  │ │ │ ├─┬ lodash._escapehtmlchar@2.4.1 </tspan>
<tspan x="10" y="1066">  │ │ │ │ └── lodash._htmlescapes@2.4.1 </tspan>
<tspan x="10" y="1082">  │ │ │ └── lodash._reunescapedhtml@2.4.1 </tspan>
<tspan x="10" y="1098">  │ │ ├─┬ lodash.keys@2.4.1 </tspan>
<tspan x="10" y="1114">  │ │ │ ├── lodash._isnative@2.4.1 </tspan>
<tspan x="10" y="1130">  │ │ │ ├── lodash._shimkeys@2.4.1 </tspan>
<tspan x="10" y="1146">  │ │ │ └── lodash.isobject@2.4.1 </tspan>
<tspan x="10" y="1162">  │ │ ├── lodash.templatesettings@2.4.1 </tspan>
<tspan x="10" y="1178">  │ │ └── lodash.values@2.4.1 </tspan>
<tspan x="10" y="1194">  │ ├── minimist@0.2.0 </tspan>
<tspan x="10" y="1210">  │ ├─┬ multipipe@0.1.2 </tspan>
<tspan x="10" y="1226">  │ │ └─┬ duplexer2@0.0.2 </tspan>
<tspan x="10" y="1242">  │ │   └── readable-stream@1.1.14 </tspan>
<tspan x="10" y="1258">  │ └─┬ through2@0.5.1 </tspan>
<tspan x="10" y="1274">  │   ├── readable-stream@1.0.34 </tspan>
<tspan x="10" y="1290">  │   └── xtend@3.0.0 </tspan>
<tspan x="10" y="1306">  ├── lodash@2.4.2 </tspan>
<tspan x="10" y="1322">  ├── q@1.5.0 </tspan>
<tspan x="10" y="1338">  ├─┬ spritesmith@0.18.0 </tspan>
<tspan x="10" y="1354">  │ ├─┬ gmsmith@0.4.5 </tspan>
<tspan x="10" y="1370">  │ │ ├── gm@1.4.2 </tspan>
<tspan x="10" y="1386">  │ │ ├── obj-extend@0.1.0 </tspan>
<tspan x="10" y="1402">  │ │ ├─┬ temporary@0.0.5 </tspan>
<tspan x="10" y="1418">  │ │ │ └── package@1.0.1 </tspan>
<tspan x="10" y="1434">  │ │ └── which@1.0.9 </tspan>
<tspan x="10" y="1450">  │ ├─┬ layout@1.3.2 </tspan>
<tspan x="10" y="1466">  │ │ └── binpacking@0.0.1 </tspan>
<tspan x="10" y="1482">  │ ├─┬ phantomjssmith@0.4.6 </tspan>
<tspan x="10" y="1498">  │ │ ├─┬ ndarray@1.0.18 </tspan>
<tspan x="10" y="1514">  │ │ │ ├── iota-array@1.0.0 </tspan>
<tspan x="10" y="1530">  │ │ │ └── is-buffer@1.1.5 </tspan>
<tspan x="10" y="1546">  │ │ ├─┬ save-pixels@0.3.0 </tspan>
<tspan x="10" y="1562">  │ │ │ ├── pngjs@0.4.0 </tspan>
<tspan x="10" y="1578">  │ │ │ └── through@2.3.8 </tspan>
<tspan x="10" y="1594">  │ │ ├─┬ shell-quote@1.4.3 </tspan>
<tspan x="10" y="1610">  │ │ │ ├── array-filter@0.0.1 </tspan>
<tspan x="10" y="1626">  │ │ │ ├── array-map@0.0.0 </tspan>
<tspan x="10" y="1642">  │ │ │ ├── array-reduce@0.0.0 </tspan>
<tspan x="10" y="1658">  │ │ │ └── jsonify@0.0.0 </tspan>
<tspan x="10" y="1674">  │ │ └── temporary@0.0.8 </tspan>
<tspan x="10" y="1690">  │ └─┬ pngsmith@0.1.5 </tspan>
<tspan x="10" y="1706">  │   ├─┬ concat-stream@1.2.1 </tspan>
<tspan x="10" y="1722">  │   │ └─┬ bops@0.0.6 </tspan>
<tspan x="10" y="1738">  │   │   ├── base64-js@0.0.2 </tspan>
<tspan x="10" y="1754">  │   │   └── to-utf8@0.0.1 </tspan>
<tspan x="10" y="1770">  │   └─┬ get-pixels@1.0.1 </tspan>
<tspan x="10" y="1786">  │     ├─┬ ndarray-pack@1.0.0 </tspan>
<tspan x="10" y="1802">  │     │ └─┬ cwise@0.3.4 </tspan>
<tspan x="10" y="1818">  │     │   ├─┬ cwise-compiler@0.0.0 </tspan>
<tspan x="10" y="1834">  │     │   │ └── uniq@0.0.2 </tspan>
<tspan x="10" y="1850">  │     │   └─┬ cwise-parser@0.0.1 </tspan>
<tspan x="10" y="1866">  │     │     └── esprima@1.0.4 </tspan>
<tspan x="10" y="1882">  │     ├── pngparse@1.1.4 </tspan>
<tspan x="10" y="1898">  │     └─┬ ppm@0.0.0 </tspan>
<tspan x="10" y="1914">  │       └── through@2.2.7 </tspan>
<tspan x="10" y="1930">  ├─┬ through2@0.4.2 </tspan>
<tspan x="10" y="1946">  │ ├─┬ readable-stream@1.0.34 </tspan>
<tspan x="10" y="1962">  │ │ ├── core-util-is@1.0.2 </tspan>
<tspan x="10" y="1978">  │ │ ├── inherits@2.0.3 </tspan>
<tspan x="10" y="1994">  │ │ ├── isarray@0.0.1 </tspan>
<tspan x="10" y="2010">  │ │ └── string_decoder@0.10.31 </tspan>
<tspan x="10" y="2026">  │ └─┬ xtend@2.1.2 </tspan>
<tspan x="10" y="2042">  │   └── object-keys@0.4.0 </tspan>
<tspan x="10" y="2058">  └─┬ vinyl@0.2.3 </tspan>
<tspan x="10" y="2074">    └── clone-stats@0.0.1</tspan>
</text>
</svg>
